<?xml version="1.0" standalone="no"?>
<!DOCTYPE svg PUBLIC "-//W3C//DTD SVG 20010904//EN"
 "http://www.w3.org/TR/2001/REC-SVG-20010904/DTD/svg10.dtd">
<svg version="1.0" xmlns="http://www.w3.org/2000/svg"
 width="512.000000pt" height="512.000000pt" viewBox="0 0 512.000000 512.000000"
 preserveAspectRatio="xMidYMid meet">

<g transform="translate(0.000000,512.000000) scale(0.100000,-0.100000)"
fill="#000000" stroke="none">
<path d="M599 5030 c-8 -5 -93 -125 -187 -267 l-172 -258 0 -1092 0 -1091 -35
-6 c-47 -9 -102 -59 -115 -104 -8 -25 -10 -305 -8 -874 3 -827 3 -837 24 -864
44 -60 67 -69 185 -72 l109 -4 0 -134 c0 -130 1 -136 25 -159 l24 -25 271 0
271 0 24 25 c24 23 25 29 25 160 l0 135 1520 0 1520 0 0 -135 c0 -131 1 -137
25 -160 l24 -25 271 0 271 0 24 25 c24 23 25 29 25 159 l0 134 109 4 c118 3
141 12 185 72 21 27 21 37 24 864 2 569 0 849 -8 874 -13 45 -68 95 -115 104
l-35 6 0 1091 0 1092 -172 258 c-95 142 -180 263 -189 268 -23 12 -3898 12
-3920 -1z m401 -158 c0 -4 -25 -82 -56 -172 -54 -159 -57 -170 -64 -302 -6
-118 -10 -144 -31 -185 -87 -168 -331 -169 -417 0 -19 37 -26 68 -30 140 l-5
93 144 217 144 216 158 1 c86 0 157 -4 157 -8z m518 -304 c-3 -283 -5 -316
-22 -348 -48 -90 -119 -134 -216 -134 -70 0 -113 16 -163 63 -54 49 -71 96
-75 208 l-4 101 67 204 c37 112 70 206 72 211 2 4 81 7 174 7 l170 0 -3 -312z
m640 4 c-3 -307 -3 -308 -29 -357 -88 -172 -330 -172 -418 0 -26 49 -26 50
-29 357 l-3 308 241 0 241 0 -3 -308z m640 -4 c-3 -299 -4 -315 -25 -353 -46
-86 -118 -129 -213 -129 -97 0 -168 44 -216 134 -17 32 -19 65 -22 348 l-3
312 241 0 241 0 -3 -312z m640 4 c-3 -307 -3 -308 -29 -357 -88 -172 -330
-172 -418 0 -26 49 -26 50 -29 357 l-3 308 241 0 241 0 -3 -308z m574 98 l69
-205 -3 -105 c-4 -115 -20 -161 -75 -211 -50 -47 -93 -63 -163 -63 -97 0 -168
44 -216 134 -17 32 -19 65 -22 348 l-3 312 172 -2 172 -3 69 -205z m567 -7
l144 -217 -5 -93 c-4 -72 -11 -103 -30 -140 -86 -169 -330 -168 -417 0 -21 41
-25 67 -31 185 -7 132 -10 143 -64 302 -31 90 -56 168 -56 172 0 4 71 8 158 8
l157 -1 144 -216z m-3572 -634 c24 -22 74 -55 111 -72 61 -29 76 -32 162 -32
86 0 101 3 162 32 37 17 87 50 112 73 l46 43 46 -43 c25 -23 75 -56 112 -73
61 -29 76 -32 162 -32 86 0 101 3 162 32 37 17 87 50 112 73 l46 43 46 -43
c25 -23 75 -56 112 -73 61 -29 76 -32 162 -32 86 0 101 3 162 32 37 17 87 50
112 73 l46 43 46 -43 c25 -23 75 -56 112 -73 61 -29 76 -32 162 -32 86 0 101
3 162 32 37 17 87 50 112 73 l46 43 46 -43 c25 -23 75 -56 112 -73 61 -29 76
-32 162 -32 86 0 101 3 162 32 37 17 87 50 112 73 l46 43 44 -41 c45 -42 120
-84 169 -96 l27 -6 0 -396 0 -396 -35 30 c-51 46 -114 80 -175 95 -48 12 -58
19 -78 54 l-22 41 37 7 c49 9 81 26 121 66 54 53 67 85 67 169 0 83 -14 117
-66 169 -52 52 -86 66 -169 66 -83 0 -117 -14 -169 -66 -47 -47 -64 -87 -69
-166 -5 -72 -5 -73 -31 -67 -138 30 -301 101 -301 133 0 10 -12 37 -28 59 -90
134 -255 151 -368 38 -57 -56 -74 -98 -74 -183 0 -29 -4 -53 -9 -53 -50 0
-302 98 -335 131 -15 13 -100 -119 -87 -135 16 -19 168 -92 241 -116 36 -11
109 -28 163 -37 l98 -17 24 -46 24 -46 -62 -29 c-41 -19 -84 -50 -128 -94
-199 -199 -225 -535 -59 -776 l31 -45 -171 0 c-134 0 -171 3 -166 13 2 6 12
36 22 66 32 103 -1 226 -82 307 -40 39 -125 84 -161 84 -28 0 -28 -3 -2 73 38
112 8 237 -77 323 -40 39 -125 84 -161 84 -28 0 -28 -3 -2 73 27 78 21 164
-15 235 -37 73 -68 105 -138 143 -58 31 -70 34 -148 33 -95 0 -147 -19 -207
-77 l-33 -31 -32 32 c-56 53 -121 77 -213 76 -66 0 -89 -5 -131 -26 -75 -39
-107 -70 -143 -137 -44 -82 -51 -163 -22 -248 26 -76 26 -73 -1 -73 -37 0
-122 -45 -162 -84 -87 -87 -116 -209 -77 -325 12 -35 21 -64 19 -65 -2 -1 -21
-7 -43 -13 -22 -5 -48 -14 -57 -18 -17 -7 -18 25 -18 579 l0 586 28 6 c46 11
138 64 173 100 18 19 35 34 37 34 3 0 25 -18 49 -41z m-461 -99 c12 0 14 -127
14 -805 l0 -805 -80 0 -80 0 0 838 0 839 66 -34 c37 -18 73 -33 80 -33z m4174
-770 l0 -840 -80 0 -80 0 0 803 0 804 38 11 c20 7 55 23 77 36 22 13 41 25 43
25 1 1 2 -377 2 -839z m-1406 509 c35 -16 52 -61 36 -98 -14 -35 -54 -53 -106
-49 -37 3 -39 5 -42 42 -7 85 46 135 112 105z m800 0 c35 -16 52 -61 36 -98
-14 -35 -54 -53 -106 -49 -37 3 -39 5 -42 42 -7 85 46 135 112 105z m-2688
-88 c79 -36 112 -128 74 -205 -57 -120 -222 -121 -279 -2 -27 54 -26 81 2 136
16 33 34 51 67 68 54 27 82 27 136 3z m2299 -191 c44 -10 104 -22 133 -25 50
-7 54 -9 76 -54 l24 -46 -61 -29 c-58 -27 -161 -117 -200 -176 l-17 -25 -17
25 c-69 98 -177 179 -273 203 -47 12 -58 19 -77 53 l-22 38 58 18 c44 13 68
29 97 61 l39 42 80 -33 c44 -18 116 -42 160 -52z m-2535 -292 c48 -25 90 -89
90 -138 0 -14 -10 -46 -22 -70 -25 -48 -89 -90 -138 -90 -49 0 -113 42 -137
90 -13 24 -23 56 -23 70 0 14 10 46 23 70 24 48 88 90 137 90 14 0 46 -10 70
-22z m499 -7 c134 -95 54 -309 -107 -287 -157 21 -192 228 -50 300 44 22 116
16 157 -13z m461 7 c48 -25 90 -89 90 -138 0 -49 -42 -113 -90 -137 -24 -13
-56 -23 -70 -23 -49 0 -113 42 -137 90 -13 24 -23 56 -23 70 0 14 10 46 23 70
24 48 88 90 137 90 14 0 46 -10 70 -22z m1235 -4 c61 -25 129 -97 163 -172
123 -266 -24 -594 -266 -594 -295 0 -430 452 -207 691 88 94 200 121 310 75z
m805 -6 c47 -20 88 -54 121 -99 18 -26 18 -28 0 -95 -28 -105 -65 -188 -125
-278 -56 -84 -214 -246 -240 -246 -23 0 -80 55 -114 108 -83 129 -87 345 -9
472 91 148 227 199 367 138z m-3244 -467 c79 -36 112 -128 74 -205 -39 -82
-125 -115 -204 -76 -120 58 -124 218 -6 278 54 27 82 27 136 3z m960 0 c79
-36 112 -128 74 -205 -39 -82 -125 -115 -204 -76 -120 58 -124 218 -6 278 54
27 82 27 136 3z m1808 -258 l26 -38 -30 -3 c-16 -2 -44 -2 -60 0 l-30 3 26 38
c15 20 30 37 34 37 4 0 19 -17 34 -37z m-3314 -900 l0 -697 22 -23 21 -23
2116 0 2115 0 23 22 23 21 0 699 0 698 80 0 80 0 0 -800 0 -800 -2320 0 -2320
0 0 800 0 800 80 0 80 0 0 -697z m4160 57 l0 -640 -2000 0 -2000 0 0 640 0
640 2000 0 2000 0 0 -640z m-3680 -1200 l0 -80 -160 0 -160 0 0 80 0 80 160 0
160 0 0 -80z m3680 0 l0 -80 -160 0 -160 0 0 80 0 80 160 0 160 0 0 -80z"/>
<path d="M1880 1986 c-332 -95 -468 -480 -265 -751 69 -92 178 -162 285 -185
39 -8 241 -10 695 -8 l640 3 55 23 c110 46 226 155 268 252 55 130 55 270 0
400 -42 97 -158 206 -268 252 l-55 23 -655 2 c-507 1 -665 -1 -700 -11z m1370
-177 c118 -56 184 -160 184 -289 0 -129 -66 -233 -184 -289 l-55 -26 -635 0
-635 0 -56 26 c-141 67 -217 226 -176 370 32 109 102 183 210 221 48 16 96 17
672 15 l620 -2 55 -26z"/>
</g>
</svg>
